<?xml version="1.0" encoding="utf-8"?>
<!-- Generator: Adobe Illustrator 25.3.1, SVG Export Plug-In . SVG Version: 6.00 Build 0)  -->
<svg version="1.1" id="Capa_1" xmlns="http://www.w3.org/2000/svg" xmlns:xlink="http://www.w3.org/1999/xlink" x="0px" y="0px"
	 viewBox="0 0 1024 768" style="enable-background:new 0 0 1024 768;" xml:space="preserve">
<style type="text/css">
	.st0{fill:none;stroke:#FFFFFF;stroke-width:3;stroke-miterlimit:10;}
	.st1{fill:none;stroke:#FFFFFF;stroke-width:2;stroke-miterlimit:10;}
	.st2{fill:#FFFFFF;}
	.st3{fill:none;stroke:#FFFFFF;stroke-width:4;stroke-miterlimit:10;}
	.st4{fill:none;stroke:#FFFFFF;stroke-miterlimit:10;}
</style>
<g>
	<path class="st0" d="M613.44,580.48h-189.3c-6.86,0-12.43-5.56-12.43-12.43V235.67c0-6.86,5.56-12.43,12.43-12.43h189.3
		c6.86,0,12.43,5.56,12.43,12.43v332.38C625.86,574.91,620.3,580.48,613.44,580.48z"/>
	<path class="st0" d="M581.81,397.5v-63.91c0.24-2.22,0.37-4.46,0.37-6.74c0-34.45-27.93-62.38-62.38-62.38
		c-32.84,0-59.73,25.37-62.18,57.58h-0.2v75.81c-15.94,15.95-25.79,37.98-25.79,62.31c0,48.7,39.48,88.18,88.18,88.18
		c48.7,0,88.18-39.48,88.18-88.18C607.97,435.66,597.96,413.49,581.81,397.5z"/>
	<ellipse class="st0" cx="520.44" cy="460.16" rx="78.36" ry="77.17"/>
	<circle class="st0" cx="519.8" cy="322.71" r="51.24"/>
	<circle class="st0" cx="519.8" cy="322.71" r="42.15"/>
	<circle class="st0" cx="519.8" cy="459" r="66.64"/>
	<rect x="396.7" y="145.85" class="st0" width="244.74" height="41.6"/>
	<path class="st1" d="M623.1,179.4H416.52c-2.09,0-3.78-1.69-3.78-3.78v-17.94c0-2.09,1.69-3.78,3.78-3.78H623.1
		c2.09,0,3.78,1.69,3.78,3.78v17.94C626.88,177.71,625.19,179.4,623.1,179.4z"/>
	<g>
		<g>
			<path class="st2" d="M517.19,356.34c10.45,0.3,20.78-3.99,27.93-11.62c0.99-1.06-0.6-2.65-1.59-1.59
				c-6.77,7.21-16.45,11.24-26.34,10.96C515.74,354.05,515.74,356.3,517.19,356.34L517.19,356.34z"/>
		</g>
	</g>
	<g>
		<g>
			<path class="st2" d="M549.37,338.16c2.32-4.22,3.8-8.8,4.43-13.58c0.08-0.6-0.57-1.12-1.12-1.12c-0.67,0-1.04,0.52-1.12,1.12
				c-0.58,4.36-2.01,8.59-4.13,12.44C546.73,338.29,548.67,339.43,549.37,338.16L549.37,338.16z"/>
		</g>
	</g>
	<g>
		<g>
			<path class="st2" d="M465.53,463.57c4.91,17.71,17.57,32.93,33.85,41.39c4.6,2.39,9.47,4.23,14.51,5.45
				c1.41,0.34,2.01-1.83,0.6-2.17c-17.32-4.2-32.4-15.98-41.1-31.48c-2.44-4.35-4.35-8.98-5.68-13.79
				C467.31,461.58,465.14,462.17,465.53,463.57L465.53,463.57z"/>
		</g>
	</g>
	<path class="st3" d="M384.29,187.45v276.76h2.05c4.17,0,7.58,3.47,7.58,7.72v22.69c0,4.25-3.41,7.72-7.58,7.72h-2.05v119.81H655.3
		V187.45H384.29z"/>
	<path class="st3" d="M391.5,501.59h-14.4c-1.34,0-2.43-1.09-2.43-2.43V466.6c0-1.34,1.09-2.43,2.43-2.43h14.4
		c1.34,0,2.43,1.09,2.43,2.43v32.56C393.92,500.5,392.83,501.59,391.5,501.59z"/>
	<rect x="655.3" y="337.59" class="st0" width="17.32" height="108.79"/>
	<path class="st0" d="M683.97,449.71h-8.2c-0.76,0-1.38-0.62-1.38-1.38V335.65c0-0.76,0.62-1.38,1.38-1.38h8.2
		c0.76,0,1.38,0.62,1.38,1.38v112.68C685.35,449.09,684.73,449.71,683.97,449.71z"/>
	<rect x="366.11" y="217.22" class="st0" width="18.18" height="109.09"/>
	<path class="st0" d="M362.64,329.49h-8.2c-0.76,0-1.38-0.62-1.38-1.38V215.43c0-0.76,0.62-1.38,1.38-1.38h8.2
		c0.76,0,1.38,0.62,1.38,1.38v112.68C364.02,328.87,363.4,329.49,362.64,329.49z"/>
	<path class="st0" d="M675.23,271.47h-17.05c-1.59,0-2.87-1.29-2.87-2.87v-30.56c0-1.59,1.29-2.87,2.87-2.87h17.05
		c1.59,0,2.87,1.29,2.87,2.87v30.56C678.1,270.18,676.81,271.47,675.23,271.47z"/>
	<g>
		<path class="st2" d="M471.54,161.16v11.78h-2.54v-11.78H471.54z"/>
		<path class="st2" d="M493.21,172.55c-0.93,0.28-2.8,0.56-5.19,0.56c-5.54,0-9.71-2.1-9.71-5.96c0-3.69,4.17-6.19,10.26-6.19
			c2.45,0,3.99,0.31,4.66,0.52l-0.61,1.24c-0.96-0.28-2.33-0.49-3.97-0.49c-4.61,0-7.67,1.76-7.67,4.86c0,2.88,2.77,4.74,7.55,4.74
			c1.55,0,3.12-0.19,4.14-0.49L493.21,172.55z"/>
		<path class="st2" d="M516.68,166.92c0,4.06-4.11,6.21-9.13,6.21c-5.19,0-8.83-2.41-8.83-5.98c0-3.74,3.88-6.19,9.13-6.19
			C513.21,160.96,516.68,163.43,516.68,166.92z M501.43,167.12c0,2.52,2.27,4.77,6.27,4.77c4.02,0,6.3-2.22,6.3-4.89
			c0-2.34-2.04-4.79-6.27-4.79C503.53,162.21,501.43,164.53,501.43,167.12z"/>
		<path class="st2" d="M523.47,161.16h10.58v1.28h-8.05v3.92h7.43v1.26h-7.43v5.33h-2.54V161.16z"/>
		<path class="st2" d="M551.35,167.41h-7.64v4.25h8.51v1.28h-11.05v-11.78h10.61v1.28h-8.08v3.72h7.64V167.41z"/>
		<path class="st2" d="M569.77,172.94l-2.51-2.6c-1.02-1-1.66-1.64-2.27-2.32h-0.06c-0.55,0.68-1.11,1.31-2.13,2.34l-2.36,2.59
			h-2.91l6.01-5.96l-5.77-5.82h2.94l2.6,2.76c0.73,0.77,1.28,1.36,1.81,1.99h0.09c0.56-0.7,1.05-1.24,1.78-1.99l2.68-2.76h2.91
			l-5.98,5.73l6.12,6.05H569.77z"/>
	</g>
	<g>
		<path class="st2" d="M265.99,404.41c2.5,1.51,3.75,3.29,3.75,5.37v69.97c0,11.55-6.93,21.42-20.79,29.62
			c-13.86,8.2-30.81,12.3-50.82,12.3c-19.64,0-36.48-4.1-50.53-12.3c-14.06-8.19-21.08-18.07-21.08-29.62V314.18
			c0-11.54,7.02-21.42,21.08-29.62c14.05-8.19,30.9-12.3,50.53-12.3c20.01,0,36.96,4.1,50.82,12.3
			c13.86,8.2,20.79,18.07,20.79,29.62c0,2.08-1.25,3.87-3.75,5.37c-2.51,1.51-5.49,2.25-8.95,2.25c-3.47,0-6.45-0.75-8.95-2.25
			c-2.51-1.5-3.75-3.29-3.75-5.37c0-7.39-4.43-13.68-13.28-18.88c-8.86-5.2-19.83-7.79-32.92-7.79c-12.71,0-23.59,2.6-32.63,7.79
			c-9.05,5.2-13.57,11.49-13.57,18.88v165.57c0,7.39,4.52,13.68,13.57,18.88c9.04,5.2,19.92,7.79,32.63,7.79
			c13.08,0,24.06-2.6,32.92-7.79c8.85-5.2,13.28-11.49,13.28-18.88V417.4h-35.23c-3.47,0-6.45-0.75-8.95-2.25
			c-2.51-1.5-3.75-3.29-3.75-5.37c0-2.08,1.24-3.86,3.75-5.37c2.5-1.5,5.49-2.25,8.95-2.25h47.93
			C260.51,402.16,263.48,402.92,265.99,404.41z"/>
		<path class="st2" d="M346.99,510.55c-2.81,2.79-6.58,5-11.31,6.64c-4.73,1.63-9.91,2.45-15.52,2.45c-8.66,0-16-1.75-22.01-5.27
			c-6.01-3.51-9.02-7.81-9.02-12.91c0-0.86,0.52-1.61,1.56-2.24c1.04-0.62,2.29-0.94,3.73-0.94c1.44,0,2.68,0.31,3.73,0.94
			c1.04,0.63,1.56,1.37,1.56,2.24c0,3.37,1.96,6.18,5.89,8.44c3.93,2.26,8.78,3.39,14.55,3.39c5.61,0,10.42-1.16,14.43-3.46
			c4.01-2.31,6.01-5.1,6.01-8.37v-24.39c0-3.17-2.01-6.18-6.01-9.02c-4.01-2.84-9.06-4.78-15.15-5.84
			c-8.98-1.63-16.08-4.3-21.29-8.01c-5.21-3.7-7.82-7.77-7.82-12.19v-8.8c0-4.81,2.92-8.92,8.78-12.34
			c5.85-3.41,12.87-5.12,21.05-5.12c8.34,0,15.4,1.71,21.17,5.12c5.77,3.42,8.66,7.53,8.66,12.34c0,0.86-0.52,1.61-1.56,2.24
			c-1.05,0.63-2.28,0.94-3.73,0.94c-1.44,0-2.69-0.31-3.73-0.94c-1.05-0.62-1.56-1.37-1.56-2.24c0-3.08-1.85-5.7-5.53-7.87
			c-3.69-2.16-8.26-3.25-13.71-3.25c-5.29,0-9.83,1.08-13.59,3.25c-3.77,2.16-5.65,4.79-5.65,7.87v8.8c0,3.08,1.96,5.92,5.89,8.51
			c3.93,2.6,9.18,4.47,15.76,5.63c8.5,1.64,15.4,4.38,20.69,8.22c5.29,3.85,7.94,8.08,7.94,12.7v24.39
			C351.2,504.73,349.79,507.77,346.99,510.55z"/>
	</g>
	<g>
		<path class="st2" d="M707.62,519.3c-4.3-2.24-6.45-4.98-6.45-8.2v-87.73c0-0.88,0.59-1.63,1.78-2.27
			c1.19-0.63,2.61-0.95,4.25-0.95c1.65,0,3.06,0.32,4.25,0.95c1.19,0.64,1.78,1.39,1.78,2.27v87.73c0,1.37,1,2.56,3.02,3.59
			c2.01,1.02,4.3,1.54,6.86,1.54h33.5c1.65,0,3.06,0.32,4.25,0.95c1.19,0.64,1.78,1.39,1.78,2.27s-0.6,1.64-1.78,2.27
			c-1.19,0.64-2.61,0.95-4.25,0.95h-33.5C717.1,522.67,711.92,521.55,707.62,519.3z"/>
		<path class="st2" d="M812.78,517.18c1.19,0.64,1.78,1.39,1.78,2.27s-0.6,1.64-1.78,2.27c-1.19,0.64-2.61,0.95-4.25,0.95
			c-6.77,0-12.08-1.46-15.92-4.39c-3.85,2.93-9.15,4.39-15.92,4.39c-1.65,0-3.07-0.32-4.25-0.95c-1.19-0.63-1.78-1.39-1.78-2.27
			s0.59-1.63,1.78-2.27c1.19-0.63,2.61-0.95,4.25-0.95c2.92,0,5.31-0.54,7.14-1.61c1.83-1.07,2.75-2.24,2.75-3.51v-79.38
			c0-1.27-0.92-2.44-2.75-3.51c-1.83-1.07-4.21-1.61-7.14-1.61c-1.65,0-3.07-0.32-4.25-0.95c-1.19-0.63-1.78-1.39-1.78-2.27
			c0-0.88,0.59-1.63,1.78-2.27c1.19-0.63,2.61-0.95,4.25-0.95c6.77,0,12.08,1.46,15.92,4.39c3.84-2.93,9.15-4.39,15.92-4.39
			c1.65,0,3.06,0.32,4.25,0.95c1.19,0.64,1.78,1.39,1.78,2.27c0,0.88-0.6,1.64-1.78,2.27c-1.19,0.64-2.61,0.95-4.25,0.95
			c-2.93,0-5.31,0.54-7.14,1.61c-1.83,1.08-2.75,2.25-2.75,3.51v79.38c0,1.27,0.91,2.44,2.75,3.51c1.83,1.08,4.21,1.61,7.14,1.61
			C810.17,516.22,811.58,516.54,812.78,517.18z"/>
		<path class="st2" d="M892.67,514.9c-3.2,2.83-7.51,5.08-12.9,6.74c-5.4,1.66-11.3,2.49-17.71,2.49c-9.88,0-18.26-1.78-25.12-5.35
			c-6.86-3.56-10.29-7.93-10.29-13.11c0-0.88,0.59-1.64,1.78-2.27c1.19-0.63,2.61-0.95,4.25-0.95s3.06,0.32,4.25,0.95
			c1.19,0.64,1.78,1.39,1.78,2.27c0,3.42,2.24,6.27,6.73,8.57c4.48,2.3,10.02,3.44,16.61,3.44c6.4,0,11.9-1.17,16.47-3.52
			c4.57-2.34,6.86-5.17,6.86-8.49v-24.75c0-3.22-2.29-6.27-6.86-9.15c-4.58-2.88-10.34-4.86-17.3-5.93
			c-10.25-1.66-18.35-4.37-24.3-8.13c-5.95-3.76-8.92-7.88-8.92-12.38v-8.93c0-4.88,3.34-9.06,10.02-12.52
			c6.68-3.47,14.69-5.2,24.02-5.2c9.51,0,17.57,1.73,24.16,5.2c6.59,3.47,9.88,7.64,9.88,12.52c0,0.88-0.6,1.64-1.78,2.27
			c-1.19,0.64-2.61,0.95-4.26,0.95c-1.65,0-3.07-0.32-4.26-0.95c-1.19-0.63-1.78-1.39-1.78-2.27c0-3.13-2.11-5.79-6.32-7.98
			c-4.21-2.2-9.43-3.3-15.65-3.3c-6.04,0-11.21,1.1-15.51,3.3c-4.3,2.2-6.45,4.86-6.45,7.98v8.93c0,3.13,2.24,6.01,6.73,8.64
			c4.48,2.63,10.48,4.54,17.98,5.71c9.7,1.66,17.57,4.44,23.61,8.35c6.04,3.91,9.06,8.2,9.06,12.89v24.75
			C897.47,509,895.87,512.07,892.67,514.9z"/>
	</g>
	<path class="st2" d="M806.7,379.39l-11.99,24.38c-0.83,1.69,1.21,3.34,2.69,2.17l15.86-12.61c0.58-0.46,0.81-1.24,0.58-1.94
		l-3.88-11.76C809.48,378.11,807.4,377.97,806.7,379.39z"/>
	<g>
		<line class="st4" x1="653.7" y1="235.16" x2="677.5" y2="235.54"/>
		<line class="st4" x1="653.71" y1="240.45" x2="677.6" y2="240.76"/>
		<line class="st4" x1="653.73" y1="245.73" x2="677.7" y2="245.99"/>
		<line class="st4" x1="653.74" y1="251.02" x2="677.8" y2="251.21"/>
		<line class="st4" x1="653.76" y1="256.3" x2="677.9" y2="256.43"/>
		<line class="st4" x1="653.77" y1="261.59" x2="678" y2="261.65"/>
		<line class="st4" x1="653.79" y1="266.88" x2="678.1" y2="266.88"/>
	</g>
	<g>
		<line class="st4" x1="674.39" y1="341.11" x2="687.31" y2="341.11"/>
		<line class="st4" x1="674.39" y1="350.38" x2="687.31" y2="350.38"/>
		<line class="st4" x1="674.39" y1="359.65" x2="687.31" y2="359.65"/>
		<line class="st4" x1="674.39" y1="368.92" x2="687.31" y2="368.93"/>
		<line class="st4" x1="674.39" y1="378.19" x2="687.31" y2="378.2"/>
		<line class="st4" x1="674.39" y1="387.46" x2="687.31" y2="387.47"/>
		<line class="st4" x1="674.39" y1="396.73" x2="687.31" y2="396.74"/>
		<line class="st4" x1="674.39" y1="406" x2="687.31" y2="406.01"/>
		<line class="st4" x1="674.39" y1="415.27" x2="687.31" y2="415.28"/>
		<line class="st4" x1="674.39" y1="424.55" x2="687.31" y2="424.55"/>
		<line class="st4" x1="674.39" y1="433.82" x2="687.31" y2="433.82"/>
		<line class="st4" x1="674.39" y1="443.09" x2="687.31" y2="443.09"/>
	</g>
	<g>
		<line class="st4" x1="353.05" y1="221.76" x2="366.11" y2="221.39"/>
		<line class="st4" x1="353.05" y1="230.82" x2="365.92" y2="230.45"/>
		<line class="st4" x1="353.05" y1="239.89" x2="365.73" y2="239.52"/>
		<line class="st4" x1="353.05" y1="248.96" x2="365.54" y2="248.58"/>
		<line class="st4" x1="353.05" y1="258.02" x2="365.35" y2="257.65"/>
		<line class="st4" x1="353.05" y1="267.09" x2="365.16" y2="266.72"/>
		<line class="st4" x1="353.05" y1="276.15" x2="364.97" y2="275.78"/>
		<line class="st4" x1="353.05" y1="285.22" x2="364.78" y2="284.85"/>
		<line class="st4" x1="353.05" y1="294.29" x2="364.59" y2="293.91"/>
		<line class="st4" x1="353.05" y1="303.35" x2="364.4" y2="302.98"/>
		<line class="st4" x1="353.05" y1="312.42" x2="364.21" y2="312.05"/>
		<line class="st4" x1="353.05" y1="321.48" x2="364.02" y2="321.11"/>
	</g>
	<path class="st0" d="M675.28,558.8h-17.05c-1.59,0-2.87-1.29-2.87-2.87v-30.56c0-1.59,1.29-2.87,2.87-2.87h17.05
		c1.59,0,2.87,1.29,2.87,2.87v30.56C678.15,557.51,676.86,558.8,675.28,558.8z"/>
	<g>
		<line class="st4" x1="653.75" y1="522.49" x2="677.5" y2="522.87"/>
		<line class="st4" x1="653.76" y1="527.78" x2="677.6" y2="528.09"/>
		<line class="st4" x1="653.78" y1="533.06" x2="677.7" y2="533.32"/>
		<line class="st4" x1="653.79" y1="538.35" x2="677.8" y2="538.54"/>
		<line class="st4" x1="653.81" y1="543.64" x2="677.9" y2="543.76"/>
		<line class="st4" x1="653.82" y1="548.92" x2="678" y2="548.98"/>
		<line class="st4" x1="653.84" y1="554.21" x2="678.1" y2="554.21"/>
	</g>
</g>
</svg>
